<?xml version="1.0" standalone="no"?>
<!DOCTYPE svg PUBLIC "-//W3C//DTD SVG 20010904//EN"
 "http://www.w3.org/TR/2001/REC-SVG-20010904/DTD/svg10.dtd">
<svg version="1.0" xmlns="http://www.w3.org/2000/svg"
 width="942.000000pt" height="897.000000pt" viewBox="0 0 942.000000 897.000000"
 preserveAspectRatio="xMidYMid meet">

<g transform="translate(0.000000,897.000000) scale(0.100000,-0.100000)"
fill="#000000" stroke="none">
<path d="M0 4485 l0 -4485 4710 0 4710 0 0 4485 0 4485 -4710 0 -4710 0 0
-4485z m8135 3107 c-6 -5 -188 -48 -405 -96 -217 -47 -501 -113 -630 -146
-129 -33 -363 -92 -520 -130 -157 -39 -456 -113 -665 -165 -355 -88 -633 -149
-885 -195 -58 -10 -190 -34 -295 -54 -746 -137 -1555 -230 -1995 -228 -320 1
-522 25 -740 87 -148 43 -175 54 -164 65 5 5 58 -8 129 -31 263 -87 634 -124
1012 -101 556 35 1128 107 1758 221 666 121 743 138 1960 442 176 44 372 93
435 110 63 16 306 72 540 124 390 86 456 100 470 104 2 0 0 -3 -5 -7z m-202
-987 c105 -49 57 -145 -158 -316 -136 -109 -1227 -828 -1545 -1019 -454 -272
-477 -288 -545 -374 -120 -154 -257 -370 -330 -521 -167 -343 -285 -594 -285
-606 0 -20 118 -204 194 -302 85 -111 308 -337 431 -437 50 -41 140 -117 200
-170 146 -128 345 -290 536 -436 175 -133 420 -343 520 -445 106 -108 167
-214 155 -265 -7 -25 -10 -26 -54 -22 -69 7 -172 53 -392 172 -107 59 -302
160 -432 226 -209 105 -435 222 -705 366 -306 164 -474 327 -531 515 -60 195
-49 528 23 728 l26 70 -26 52 c-64 125 -169 426 -190 542 -7 38 -30 50 -39 20
-2 -10 -7 -54 -11 -98 -10 -124 -70 -681 -130 -1205 -77 -674 -97 -910 -111
-1328 -4 -117 -11 -202 -17 -202 -5 0 -7 41 -3 108 3 59 8 175 12 257 9 232
41 630 74 913 59 509 70 612 110 982 57 535 59 554 53 560 -8 8 -99 -49 -580
-362 l-121 -79 -6 -137 c-27 -568 -164 -1021 -431 -1427 -236 -358 -622 -686
-1004 -854 -192 -85 -749 -265 -943 -305 -150 -31 -215 -15 -256 64 -71 140
23 376 292 735 375 500 1038 1058 2143 1804 99 67 183 130 186 141 14 55 -1
572 -24 800 -30 303 -70 636 -160 1311 -31 233 -34 329 -11 337 9 3 11 -6 6
-35 -3 -21 3 -103 15 -183 11 -80 25 -190 31 -245 6 -55 24 -206 40 -335 96
-767 111 -943 119 -1322 l6 -327 210 136 c116 75 274 176 351 225 l141 89 7
46 c8 63 7 149 -4 203 -34 168 -32 588 4 856 24 177 35 325 41 564 6 261 17
332 46 303 9 -9 8 -54 0 -170 -7 -87 -16 -374 -21 -638 -8 -436 -23 -847 -35
-950 -6 -54 17 -171 33 -167 7 1 81 44 165 96 84 52 281 173 439 269 l288 175
158 198 c86 110 180 228 207 264 64 84 264 306 351 392 221 214 516 435 744
557 150 79 430 193 555 225 36 9 154 -3 188 -19z"/>
<path d="M7630 6561 c-439 -149 -791 -369 -1163 -730 -82 -79 -262 -279 -338
-376 -31 -38 -117 -148 -193 -243 -76 -95 -136 -175 -134 -177 10 -10 735 443
1163 728 681 452 891 606 966 710 58 81 16 127 -116 127 -55 0 -95 -9 -185
-39z"/>
<path d="M4812 5639 c-1 -19 -9 -84 -17 -144 -24 -173 -37 -486 -25 -638 5
-72 10 -141 11 -152 0 -20 0 -20 9 0 11 29 32 639 28 820 -2 83 -5 134 -6 114z"/>
<path d="M5460 4806 c-118 -73 -300 -185 -405 -248 -104 -64 -198 -123 -208
-130 -16 -12 -16 -20 17 -138 49 -180 165 -480 185 -480 6 0 77 142 274 550
82 171 190 346 309 503 32 42 55 77 51 76 -4 0 -105 -60 -223 -133z"/>
<path d="M4790 4452 c0 -18 5 -32 10 -32 6 0 8 11 4 28 -10 39 -14 40 -14 4z"/>
<path d="M3844 3782 c-916 -618 -1474 -1068 -1906 -1536 -235 -256 -432 -549
-497 -744 -38 -111 -21 -230 37 -269 39 -25 153 -21 273 11 383 100 754 227
954 326 368 181 727 510 949 869 184 299 312 674 366 1074 11 87 26 397 18
397 -2 0 -89 -58 -194 -128z"/>
<path d="M5032 3672 c-37 -118 -47 -199 -47 -397 0 -169 3 -199 23 -270 81
-280 231 -389 1203 -880 158 -79 372 -190 475 -246 206 -110 318 -159 366
-159 29 0 30 2 24 31 -9 46 -86 155 -158 225 -122 119 -356 320 -479 413 -154
117 -408 324 -554 451 -60 53 -166 143 -235 201 -217 184 -372 356 -510 566
l-87 131 -21 -66z"/>
</g>
</svg>
